Land_normalized_Motion_pl02
version=1
nRows=8
nColumns=43
inDegrees=yes
endheader
time		pelvis_tilt		pelvis_list		pelvis_rotation		pelvis_tx		pelvis_ty		pelvis_tz		hip_flexion_r		hip_adduction_r		hip_rotation_r		knee_angle_r		ankle_angle_r		subtalar_angle_r		mtp_angle_r		hip_flexion_l		hip_adduction_l		hip_rotation_l		knee_angle_l		ankle_angle_l		subtalar_angle_l		mtp_angle_l		lumbar_extension		lumbar_bending		lumbar_rotation		neck_flexion		neck_lateral_bending		neck_rotation		arm_flex_r		arm_add_r		arm_rot_r		elbow_flex_r		pro_sup_r		wrist_flex_r		wrist_dev_r		hand_finger_flex_r		arm_flex_l		arm_add_l		arm_rot_l		elbow_flex_l		pro_sup_l		wrist_flex_l		wrist_dev_l		hand_finger_flex_l		
1.197197		0.360083		-0.994503		91.308776		-0.027688		0.402492		0.432968		97.588496		-13.186481		0.981777		-137.056180		38.343993		0.802543		-0.018577		100.001146		-9.862339		1.310659		-137.514284		37.921351		-1.088715		-9.025472		-56.854756		-4.151881		2.388544		25.603273		7.058529		-2.544282		50.975569		-58.762301		13.114605		86.494671		102.830142		-35.543834		-16.321549		50.546489		78.993511		-47.755228		52.428097		78.093906		103.479497		-47.359388		0.452571		90.000210		
1.200126		0.218094		-0.804508		91.287230		-0.027567		0.399558		0.432488		97.806632		-13.203259		1.132566		-137.507007		38.599529		0.714960		-0.437096		100.120792		-9.997247		1.455800		-137.940586		38.300808		-0.294580		-9.138436		-57.213657		-4.268861		1.961674		25.816283		7.021965		-2.160818		55.845355		-58.906198		17.488707		86.107383		101.864566		-36.033663		-15.979571		50.917429		82.459027		-47.669822		55.129653		77.654215		101.385571		-47.709604		0.071179		90.000210		
1.203056		0.150810		-0.713278		91.336618		-0.027433		0.396473		0.431809		98.092035		-13.282112		1.207108		-137.987103		38.892349		0.692193		-0.613069		100.401851		-10.042404		1.661512		-138.386725		38.496584		0.275027		-9.204464		-57.375220		-4.400311		1.962749		25.795411		7.253166		-2.511496		59.444501		-59.152361		20.289432		85.863087		101.366064		-35.633864		-15.720450		51.398421		85.632514		-46.643622		57.246058		76.649483		101.373529		-47.127707		-0.127790		90.000210		
1.205985		0.030802		-0.665110		91.371750		-0.027280		0.393485		0.431179		98.450837		-13.322076		1.347758		-138.442581		39.020779		0.606663		-0.776046		100.671094		-10.112512		1.777499		-138.788521		38.745873		0.825290		-9.269367		-57.550031		-4.527226		1.898053		25.953383		7.179355		-2.800253		63.112423		-59.339481		23.214548		85.694815		100.606849		-35.446284		-15.586780		51.725182		88.683495		-45.701533		59.336380		75.724753		100.997597		-46.874384		-0.221139		90.000210		
1.208914		-0.084624		-0.412714		91.390458		-0.027054		0.391118		0.430615		98.514024		-13.316570		1.444320		-138.860792		39.315168		0.404756		-1.024562		100.678956		-10.190929		1.897417		-139.170528		39.024449		1.371982		-9.419402		-57.982094		-4.632506		1.587037		26.185393		7.232003		-2.614254		67.523718		-59.199889		27.100895		85.230896		99.282896		-35.799431		-15.627024		52.345406		91.633979		-45.146386		61.378100		75.019986		100.257665		-47.147972		-0.450910		90.000210		
1.211843		-0.231282		-0.581297		91.452471		-0.026869		0.387853		0.429843		99.131598		-13.321893		1.643380		-139.324196		39.345773		0.287692		-1.151640		101.168469		-10.215879		1.921792		-139.550522		39.208776		1.725778		-9.491445		-57.906776		-4.773571		1.541431		26.355082		7.187959		-2.809051		70.680558		-59.250366		29.490865		85.080694		99.043279		-35.451896		-15.816894		52.837694		94.084751		-43.980658		62.804412		73.996168		100.483103		-46.914752		-0.543499		90.000210		
1.214773		-0.347864		-0.180132		91.476645		-0.026529		0.386115		0.429209		98.968248		-13.274191		1.724258		-139.719786		39.555082		0.013964		-1.318805		100.957271		-10.324466		1.980633		-139.906917		39.485191		2.129973		-9.656700		-58.530343		-4.872913		1.267460		26.681403		7.120334		-2.775614		74.795756		-58.922834		33.003022		84.632897		97.415926		-35.659207		-15.829961		53.331726		96.874740		-43.296638		64.681481		73.233529		100.285687		-47.089216		-0.462383		90.000210		
1.217702		-0.515480		-0.340887		91.534058		-0.026063		0.383123		0.428380		99.544168		-13.173566		1.957616		-140.165011		39.506550		-0.136570		-1.379838		101.398328		-10.366133		1.984126		-140.241405		39.641692		2.363587		-9.703582		-58.436605		-5.095090		1.249588		26.659529		7.179475		-3.000220		77.411697		-58.800055		34.788431		84.422122		97.475977		-35.075400		-15.997397		53.676994		99.131342		-41.937099		65.992353		72.054932		100.874198		-46.712365		-0.476335		90.000210		
